<?xml version="1.0" encoding="utf-8"?>
<!-- Generator: Adobe Illustrator 25.2.1, SVG Export Plug-In . SVG Version: 6.00 Build 0)  -->
<svg version="1.1" id="Capa_1" xmlns="http://www.w3.org/2000/svg" xmlns:xlink="http://www.w3.org/1999/xlink" x="0px" y="0px"
	 viewBox="0 0 198.4 73.1" style="enable-background:new 0 0 198.4 73.1;" xml:space="preserve">
<style type="text/css">
	.st0{fill:url(#SVGID_1_);}
	.st1{fill:url(#SVGID_2_);}
	.st2{fill:url(#SVGID_3_);}
</style>
<g>
	<g>
		<linearGradient id="SVGID_1_" gradientUnits="userSpaceOnUse" x1="132.3711" y1="36.7017" x2="195.5583" y2="36.7017">
			<stop  offset="0" style="stop-color:#EA49EE"/>
			<stop  offset="1" style="stop-color:#FFDD45"/>
		</linearGradient>
		<path class="st0" d="M195.6,36.7c0-4-3.2-7.2-7.2-7.2h-39.9c2.7-5.9,8.7-9.9,15.6-9.9h24.4c4,0,7.2-3.2,7.2-7.2s-3.2-7.2-7.2-7.2
			H164c-17.4,0-31.6,14.2-31.6,31.6s14.2,31.6,31.6,31.6h24.4c4,0,7.2-3.2,7.2-7.2s-3.2-7.2-7.2-7.2H164c-6.9,0-12.8-4.1-15.6-9.9
			h39.9C192.3,43.9,195.6,40.7,195.6,36.7z"/>
	</g>
	<g>
		<linearGradient id="SVGID_2_" gradientUnits="userSpaceOnUse" x1="3.1098" y1="36.7017" x2="66.2976" y2="36.7017">
			<stop  offset="0" style="stop-color:#36F3E2"/>
			<stop  offset="1" style="stop-color:#9D00FF"/>
		</linearGradient>
		<path class="st1" d="M59.1,5.1c-4,0-7.2,3.2-7.2,7.2v24.4c0,9.5-7.7,17.2-17.2,17.2s-17.2-7.7-17.2-17.2V12.3c0-4-3.2-7.2-7.2-7.2
			s-7.2,3.2-7.2,7.2v24.4c0,17.4,14.2,31.6,31.6,31.6s31.6-14.2,31.6-31.6V12.3C66.3,8.3,63.1,5.1,59.1,5.1z"/>
	</g>
	<g>
		<linearGradient id="SVGID_3_" gradientUnits="userSpaceOnUse" x1="71.1501" y1="36.7007" x2="134.3409" y2="36.7007">
			<stop  offset="0" style="stop-color:#9D00FF"/>
			<stop  offset="1" style="stop-color:#EA49EE"/>
		</linearGradient>
		<path class="st2" d="M130.3,5.9c-3.6-1.8-7.9-0.3-9.7,3.2l-17.9,35.8L84.8,9.1c-1.8-3.6-6.1-5-9.7-3.2c-3.6,1.8-5,6.1-3.2,9.7
			l24.4,48.7c1.2,2.4,3.7,4,6.5,4s5.2-1.5,6.5-4l24.4-48.7C135.4,12,133.9,7.7,130.3,5.9z"/>
	</g>
</g>
</svg>
