<?xml version="1.0" encoding="utf-8"?>
<!-- Generator: Adobe Illustrator 25.2.1, SVG Export Plug-In . SVG Version: 6.00 Build 0)  -->
<svg version="1.1" id="Capa_1" xmlns="http://www.w3.org/2000/svg" xmlns:xlink="http://www.w3.org/1999/xlink" x="0px" y="0px"
	 viewBox="0 0 162.5 53.3" style="enable-background:new 0 0 162.5 53.3;" xml:space="preserve">
<style type="text/css">
	.st0{clip-path:url(#SVGID_2_);fill:url(#SVGID_3_);}
	.st1{clip-path:url(#SVGID_5_);fill:url(#SVGID_6_);}
	.st2{clip-path:url(#SVGID_8_);fill:url(#SVGID_9_);}
</style>
<g>
	<defs>
		<path id="SVGID_1_" d="M135.8,0c-14.7,0-26.7,12-26.7,26.7c0,14.7,12,26.7,26.7,26.7h20.6c3.4,0,6.1-2.7,6.1-6.1
			c0-3.4-2.7-6.1-6.1-6.1h-20.6c-5.8,0-10.8-3.4-13.1-8.4h33.7c3.4,0,6.1-2.7,6.1-6.1c0-3.4-2.7-6.1-6.1-6.1h-33.7
			c2.3-4.9,7.3-8.4,13.1-8.4h20.6c3.4,0,6.1-2.7,6.1-6.1c0-3.4-2.7-6.1-6.1-6.1H135.8z"/>
	</defs>
	<clipPath id="SVGID_2_">
		<use xlink:href="#SVGID_1_"  style="overflow:visible;"/>
	</clipPath>
	
		<linearGradient id="SVGID_3_" gradientUnits="userSpaceOnUse" x1="-9.094947e-13" y1="53.3429" x2="1" y2="53.3429" gradientTransform="matrix(0 -53.3411 -53.3411 0 2981.1575 53.3429)">
		<stop  offset="0" style="stop-color:#FF005B"/>
		<stop  offset="0.4858" style="stop-color:#FF26FF"/>
		<stop  offset="1" style="stop-color:#8C2CFF"/>
	</linearGradient>
	<rect x="109.1" y="0" class="st0" width="53.3" height="53.3"/>
</g>
<g>
	<defs>
		<path id="SVGID_4_" d="M41.2,6.1v20.6c0,8-6.5,14.5-14.5,14.5s-14.5-6.5-14.5-14.5V6.1C12.2,2.7,9.5,0,6.1,0C2.7,0,0,2.7,0,6.1
			v20.6c0,14.7,12,26.7,26.7,26.7s26.7-12,26.7-26.7V6.1c0-3.4-2.7-6.1-6.1-6.1C43.9,0,41.2,2.7,41.2,6.1"/>
	</defs>
	<clipPath id="SVGID_5_">
		<use xlink:href="#SVGID_4_"  style="overflow:visible;"/>
	</clipPath>
	
		<linearGradient id="SVGID_6_" gradientUnits="userSpaceOnUse" x1="-9.094947e-13" y1="53.3429" x2="1" y2="53.3429" gradientTransform="matrix(0 -53.3411 -53.3411 0 2872.0386 53.3429)">
		<stop  offset="0" style="stop-color:#FF005B"/>
		<stop  offset="0.4858" style="stop-color:#FF26FF"/>
		<stop  offset="1" style="stop-color:#8C2CFF"/>
	</linearGradient>
	<rect y="0" class="st1" width="53.3" height="53.3"/>
</g>
<g>
	<defs>
		<path id="SVGID_7_" d="M63.5,0c-0.9,0-1.8,0.2-2.7,0.6c-3,1.5-4.2,5.2-2.7,8.2L78.7,50c1,2.1,3.1,3.4,5.5,3.4
			c2.3,0,4.4-1.3,5.5-3.4l20.6-41.2c1.5-3,0.3-6.7-2.7-8.2c-3-1.5-6.7-0.3-8.2,2.7L84.1,33.6L69,3.4C67.9,1.2,65.8,0,63.5,0L63.5,0z
			"/>
	</defs>
	<clipPath id="SVGID_8_">
		<use xlink:href="#SVGID_7_"  style="overflow:visible;"/>
	</clipPath>
	
		<linearGradient id="SVGID_9_" gradientUnits="userSpaceOnUse" x1="-9.094947e-13" y1="53.3429" x2="1" y2="53.3429" gradientTransform="matrix(0 -53.3429 -53.3429 0 2929.5735 53.3429)">
		<stop  offset="0" style="stop-color:#FF005B"/>
		<stop  offset="0.4858" style="stop-color:#FF26FF"/>
		<stop  offset="1" style="stop-color:#8C2CFF"/>
	</linearGradient>
	<rect x="56.6" y="-0.9" class="st2" width="55.1" height="54.2"/>
</g>
</svg>
