<?xml version="1.0" encoding="utf-8"?>
<!-- Generator: Adobe Illustrator 25.2.1, SVG Export Plug-In . SVG Version: 6.00 Build 0)  -->
<svg version="1.1" id="Capa_1" xmlns="http://www.w3.org/2000/svg" xmlns:xlink="http://www.w3.org/1999/xlink" x="0px" y="0px"
	 viewBox="0 0 198.4 198.4" style="enable-background:new 0 0 198.4 198.4;" xml:space="preserve">
<style type="text/css">
	.st0{fill:url(#SVGID_1_);}
</style>
<linearGradient id="SVGID_1_" gradientUnits="userSpaceOnUse" x1="7.3449" y1="98.9199" x2="191.3233" y2="98.9199">
	<stop  offset="0" style="stop-color:#36F3E2"/>
	<stop  offset="0.35" style="stop-color:#9D00FF"/>
	<stop  offset="0.65" style="stop-color:#EA49EE"/>
	<stop  offset="1" style="stop-color:#FFDD45"/>
</linearGradient>
<path class="st0" d="M99.3,6.9c-50.8,0-92,41.2-92,92s41.2,92,92,92s92-41.2,92-92S150.1,6.9,99.3,6.9z M160.8,65.2l-48.6,97.3
	c-2.4,4.9-7.4,8-12.9,8c-5.5,0-10.4-3.1-12.9-8L37.8,65.2c-3.6-7.1-0.7-15.8,6.4-19.3c7.1-3.6,15.8-0.7,19.3,6.4l35.7,71.5
	l35.7-71.5c3.6-7.1,12.2-10,19.3-6.4C161.5,49.4,164.4,58,160.8,65.2z"/>
</svg>
